<svg id="_x33_0" enable-background="new 0 0 62 62" height="512" viewBox="0 0 62 62" width="512" xmlns="http://www.w3.org/2000/svg"><g><g><g><path d="m17 55h4 3c.55 0 1 .45 1 1 0 1.38-.56 2.63-1.46 3.54-.91.9-2.16 1.46-3.54 1.46h-10c-2.76 0-5-2.24-5-5 0-.55.45-1 1-1h5 4z" fill="#dfb28b"/></g><g><path d="m17 51h4v4h-4z" fill="#e6e9ed"/></g><g><path d="m22.91 41.21c-.39.15-.74.38-1.03.67-.54.54-.88 1.29-.88 2.12-2.35 0-4.4 1.6-4.97 3.88l-.03.12h10l-.03-.12c-.08-.31-.18-.6-.31-.88h3.82c.34.94.52 1.95.52 3 0 .55-.45 1-1 1h-8-4-4c-.55 0-1-.45-1-1 0-2.48 1.01-4.74 2.64-6.36 1.52-1.53 3.59-2.51 5.89-2.63.15-.01.31-.01.47-.01.66 0 1.3.07 1.91.2z" fill="#ccd1d9"/></g><g><path d="m24 41c-.39 0-.75.07-1.09.21v-.01c-.61-.13-1.25-.2-1.91-.2-.16 0-.32 0-.47.01-.34-.81-.53-1.7-.53-2.62v-1.39l-1.54-2.05c-.95-1.27-1.46-2.8-1.46-4.39 0-1.66.56-3.27 1.6-4.56 1.55-1.94 2.4-4.35 2.4-6.84v-.16c0-9.94 8.06-18 18-18 4.97 0 9.47 2.02 12.73 5.27 3.25 3.26 5.27 7.76 5.27 12.73v.16c0 2.49.85 4.9 2.4 6.84 1.04 1.29 1.6 2.9 1.6 4.56 0 1.59-.51 3.12-1.46 4.39l-1.54 2.05v1.39c0 2.26-1.13 4.36-3 5.61 0-.55-.45-1-1-1-1.91 0-3.68.75-5 2.01v-.01c0-3.31-2.69-6-6-6h-2c-1.33 0-2.65.16-3.94.49l-2.06.51-8 2-1.11-.55c-.58-.3-1.23-.45-1.89-.45zm3.51-27.01c-1.51.61-2.51 2.08-2.51 3.72v7.29c0 3.86 1.57 7.36 4.1 9.9 2.54 2.53 6.04 4.1 9.9 4.1 7.73 0 14-6.27 14-14v-7.29c0-1.64-1-3.11-2.51-3.72l-1.78-.71c-.48 1.02-1.51 1.72-2.71 1.72h-3.39c-1.5 0-2.93-.5-4.09-1.38-.53.83-1.46 1.38-2.52 1.38h-2.53c-1.67 0-3.25-.57-4.5-1.59l-.01.01z" fill="#656d78"/></g><g><path d="m45 43c0-2.21-1.79-4-4-4h2c3.31 0 6 2.69 6 6v.01c-.76.73-1.37 1.64-1.76 2.67l-1.24 3.32h-4-2-3v-4h4c1.1 0 2.1-.45 2.83-1.17.72-.73 1.17-1.73 1.17-2.83z" fill="#ff826e"/></g><g><path d="m41 39c2.21 0 4 1.79 4 4 0 1.1-.45 2.1-1.17 2.83-.73.72-1.73 1.17-2.83 1.17h-4-2v-7l2.06-.51c1.29-.33 2.61-.49 3.94-.49z" fill="#ff826e"/></g><g><path d="m40.21 58.89c1.1-.54 1.79-1.66 1.79-2.89l.1-.1c.58-.58.9-1.36.9-2.17 0-.48-.11-.95-.32-1.38l-.68-1.35h4l.25.2c.64.51 1.24 1.07 1.79 1.67 1.35 1.48 2.41 3.19 3.12 5.05.38.99.66 2.02.84 3.08h-14c.55 0 1.05-.22 1.41-.59.37-.36.59-.86.59-1.41z" fill="#ff826e"/></g><g><path d="m52.09 52.36 2.91 3.64-3.84 1.92c-.71-1.86-1.77-3.57-3.12-5.05z" fill="#fcd770"/></g><g><path d="m55 49.35c0 1.51-1.13 2.79-2.63 2.98l-.28.03-4.05.51c-.55-.6-1.15-1.16-1.79-1.67l-.25-.2 1.24-3.32c.39-1.03 1-1.94 1.76-2.67 1.32-1.26 3.09-2.01 5-2.01.55 0 1 .45 1 1z" fill="#ffc729"/></g><g><path d="m42 51 .68 1.35c.21.43.32.9.32 1.38 0 .81-.32 1.59-.9 2.17l-.1.1c0 1.23-.69 2.35-1.79 2.89l-.21.11c0 .55-.22 1.05-.59 1.41-.36.37-.86.59-1.41.59h-4l.25-.2c3.06-2.45 5.11-5.94 5.75-9.8z" fill="#ffeaa7"/></g><g><path d="m40 51c-.64 3.86-2.69 7.35-5.75 9.8l-.25.2h-3l.18-1.23c.52-3.65 2.66-6.87 5.82-8.77z" fill="#fcd770"/></g><g><path d="m29.48 47h-3.82-1.66c-1.66 0-3-1.34-3-3 0-.83.34-1.58.88-2.12.29-.29.64-.52 1.03-.67.34-.14.7-.21 1.09-.21.66 0 1.31.15 1.89.45l1.11.55 8-2v7z" fill="#f0d0b4"/></g><g><path d="m25 25v-7.29c0-1.64 1-3.11 2.51-3.72l1.45-.57.01-.01c1.25 1.02 2.83 1.59 4.5 1.59h2.53c1.06 0 1.99-.55 2.52-1.38 1.16.88 2.59 1.38 4.09 1.38h3.39c1.2 0 2.23-.7 2.71-1.72l1.78.71c1.51.61 2.51 2.08 2.51 3.72v7.29c0 7.73-6.27 14-14 14-3.86 0-7.36-1.57-9.9-4.1-2.53-2.54-4.1-6.04-4.1-9.9z" fill="#f0d0b4"/></g></g><g><path d="m36 34h4.764c1.76 0 3.343-.978 4.131-2.553l-1.789-.895c-.447.893-1.344 1.448-2.342 1.448h-4.764z"/><path d="m28.955 23.131-.813 1.355 1.715 1.028.98-1.634c.382.078.771.12 1.163.12s.781-.042 1.162-.12l.98 1.634 1.715-1.028-.813-1.355c.388-.237.752-.514 1.076-.838l.586-.586-1.414-1.414-.586.586c-.712.712-1.698 1.121-2.706 1.121s-1.994-.409-2.707-1.121l-.586-.586-1.414 1.414.586.586c.324.324.688.601 1.076.838z"/><path d="m42.955 23.131-.813 1.355 1.715 1.028.98-1.634c.382.078.771.12 1.163.12s.781-.042 1.162-.12l.98 1.634 1.715-1.028-.813-1.355c.388-.237.752-.514 1.076-.838l.586-.586-1.414-1.414-.586.586c-.712.712-1.698 1.121-2.706 1.121s-1.994-.409-2.707-1.121l-.586-.586-1.414 1.414.586.586c.324.324.688.601 1.076.838z"/><path d="m5.447 51.105-3.016-1.508c-.266-.132-.431-.4-.431-.698v-.119c0-.494.484-.877.971-.757l2.02.505c.702.176 1.456-.045 1.953-.582.496-.536.66-1.299.429-1.991l-.334-1.002c-.026-.077-.039-.155-.039-.232 0-.398.323-.721.721-.721h.216c.271 0 .523.156.645.398l.524 1.049 1.789-.895-.524-1.048c-.464-.927-1.396-1.504-2.434-1.504h-.216c-1.5 0-2.721 1.221-2.721 2.721 0 .29.046.577.14.861l.335 1.006-2.021-.505c-.222-.055-.447-.083-.673-.083-1.533 0-2.781 1.248-2.781 2.781v.119c0 1.06.589 2.013 1.537 2.487l3.016 1.508z"/><path d="m60.18 25.374c-1.406-1.757-2.18-3.964-2.18-6.213v-.161c0-10.477-8.523-19-19-19s-19 8.523-19 19v.161c0 2.25-.774 4.456-2.179 6.212-1.175 1.467-1.821 3.311-1.821 5.191 0 1.787.59 3.557 1.662 4.985l1.338 1.784v1.061c0 .604.077 1.196.214 1.774-4.663.846-8.214 4.928-8.214 9.832 0 1.103.897 2 2 2h3v2h-10c-1.103 0-2 .897-2 2 0 3.309 2.691 6 6 6h10c3.309 0 6-2.691 6-6 0-1.103-.897-2-2-2h-2v-2h7c1.103 0 2-.897 2-2 0-.677-.075-1.345-.208-2h5.208v2.448c-3.167 2.089-5.274 5.405-5.814 9.183l-.339 2.369h23.334l-.194-1.165c-.137-.823-.35-1.624-.603-2.409l4.17-2.085-2.744-3.43c1.307-.667 2.19-2.021 2.19-3.559v-4.858c1.882-1.461 3-3.694 3-6.099v-1.061l1.338-1.784c1.072-1.429 1.662-3.199 1.662-4.986 0-1.88-.646-3.724-1.82-5.19zm-32.294-10.452.934-.374c1.342.922 2.945 1.452 4.652 1.452h2.528c1.048 0 1.996-.414 2.71-1.076 1.179.688 2.526 1.076 3.895 1.076h3.395c1.25 0 2.353-.588 3.087-1.488l1.027.411c1.146.458 1.886 1.551 1.886 2.785v7.292c0 7.168-5.832 13-13 13s-13-5.832-13-13v-7.292c0-1.234.74-2.327 1.886-2.786zm16.114 28.078c0 1.654-1.346 3-3 3h-5v-5.219l1.302-.326c1.21-.302 2.454-.455 3.698-.455 1.654 0 3 1.346 3 3zm-10 3h-10c-1.103 0-2-.897-2-2s.897-2 2-2c.5 0 1 .118 1.447.342l1.437.718 7.116-1.779zm-13.829-.908c.215.751.638 1.407 1.211 1.908h-3.918c.589-.984 1.572-1.675 2.707-1.908zm-.171 14.908h-10c-2.206 0-4-1.794-4-4h4v3h2v-3h2v2h2v-2h8c0 2.206-1.794 4-4 4zm0-6h-2v-2h2zm9-4h-16c0-4.257 3.345-7.738 7.544-7.977-.187.326-.335.676-.425 1.051-2.431.352-4.449 2.123-5.058 4.561l-.345 1.365h12.568l-.253-1h1.714c.168.65.255 1.319.255 2zm12-2c2.757 0 5-2.243 5-5 0-.863-.24-1.663-.626-2.373 1.463.799 2.476 2.295 2.593 4.055-.702.762-1.283 1.645-1.659 2.648l-1.001 2.67h-7.307v-2zm-8.834 11.914c.468-3.279 2.327-6.149 5.117-7.914h1.481c-.786 3.146-2.57 5.954-5.118 8h-1.493zm4.403.086c2.112-2.226 3.578-4.983 4.238-8h.574l.398.796c.144.288.22.609.22.93 0 .546-.222 1.082-.605 1.466l-.394.392v.416c0 .853-.474 1.619-1.236 2l-.764.382v.618c0 .551-.448 1-1 1zm4.251 0c.042-.118.085-.236.112-.36 1.162-.69 1.915-1.876 2.048-3.216.651-.74 1.021-1.71 1.021-2.698 0-.594-.143-1.185-.395-1.726h2.043c2.548 2.046 4.338 4.854 5.123 8zm10.844-3.45c-.472-1.026-1.046-2-1.713-2.911l1.708-.214 1.787 2.233zm2.336-7.198c0 1.006-.753 1.86-1.752 1.985l-3.851.481c-.385-.394-.788-.77-1.213-1.127l.997-2.658c.905-2.412 3.243-4.033 5.819-4.033zm4.738-15.003-1.738 2.318v1.728c0 1.556-.634 3.014-1.72 4.082-.348-.294-.791-.477-1.28-.477-1.528 0-2.981.45-4.24 1.214-.574-2.17-2.162-3.926-4.227-4.732 5.003-2.435 8.467-7.555 8.467-13.482v-7.292c0-2.056-1.233-3.878-3.144-4.643l-.927-.371c.041-.226.071-.456.071-.694 0-2.206-1.794-4-4-4h-.146c-1.525 0-2.896.847-3.578 2.211l-.171.342 1.789.895.171-.342c.341-.683 1.027-1.106 1.789-1.106h.146c1.103 0 2 .897 2 2s-.897 2-2 2h-3.395c-.99 0-1.965-.271-2.823-.756.13-.394.218-.807.218-1.244 0-2.206-1.794-4-4-4h-.146c-1.525 0-2.896.847-3.578 2.211l-.171.342 1.789.895.171-.342c.341-.683 1.027-1.106 1.789-1.106h.146c1.103 0 2 .897 2 2s-.897 2-2 2h-2.528c-2.377 0-4.515-1.321-5.577-3.447l-1.789.895c.294.588.662 1.117 1.071 1.605l-.033.013c-1.911.764-3.144 2.586-3.144 4.642v7.292c0 6.573 4.256 12.159 10.153 14.181l-7.036 1.759-.774-.387c-.725-.362-1.534-.553-2.343-.553-.397 0-.773.076-1.136.184-.527-.099-1.063-.156-1.602-.17-.156-.526-.262-1.064-.262-1.619v-1.728l-1.738-2.317c-.814-1.085-1.262-2.43-1.262-3.786 0-1.428.491-2.827 1.383-3.941 1.687-2.11 2.617-4.76 2.617-7.462v-.161c0-9.374 7.626-17 17-17s17 7.626 17 17v.161c0 2.702.93 5.352 2.618 7.462.891 1.114 1.382 2.513 1.382 3.941 0 1.356-.448 2.701-1.262 3.785z"/></g></g></svg>